<?xml version="1.0" encoding="UTF-8" standalone="no"?>
<!-- Created with Inkscape (http://www.inkscape.org/) -->

<svg
   xmlns:dc="http://purl.org/dc/elements/1.1/"
   xmlns:cc="http://creativecommons.org/ns#"
   xmlns:rdf="http://www.w3.org/1999/02/22-rdf-syntax-ns#"
   xmlns:svg="http://www.w3.org/2000/svg"
   xmlns="http://www.w3.org/2000/svg"
   xmlns:sodipodi="http://sodipodi.sourceforge.net/DTD/sodipodi-0.dtd"
   xmlns:inkscape="http://www.inkscape.org/namespaces/inkscape"
   id="svg2"
   sodipodi:docname="spade7.svg"
   viewBox="0 0 140 190"
   sodipodi:version="0.32"
   version="1.0"
   y="0"
   x="0"
   inkscape:version="0.91 r13725">
  <defs
     id="defs4848" />
  <sodipodi:namedview
     id="base"
     bordercolor="#666666"
     inkscape:pageshadow="2"
     inkscape:window-y="26"
     pagecolor="#ffffff"
     inkscape:window-height="791"
     inkscape:zoom="2.8284271"
     inkscape:window-x="0"
     borderopacity="1.0"
     inkscape:current-layer="svg2"
     inkscape:cx="70"
     inkscape:cy="95"
     inkscape:window-width="1152"
     inkscape:pageopacity="0.0"
     showgrid="true"
     inkscape:window-maximized="0">
    <inkscape:grid
       type="xygrid"
       id="grid4850" />
  </sodipodi:namedview>
  <g
     id="layer1"
     inkscape:label="Layer 1"
     inkscape:groupmode="layer" />
  <g
     id="g4855">
    <g
       id="g5630"
       style="">
      <path
         inkscape:connector-curvature="0"
         d="m 17.398194,1.5936607 104.525926,0 c 8.99126,0 16.23704,7.1745733 16.23704,16.0864873 l 0,153.827022 c 0,8.9079 -7.24578,16.08649 -16.23704,16.08649 l -104.525926,0 c -8.995318,0 -16.2370361,-7.17859 -16.2370361,-16.08649 l 0,-153.827022 c 0,-8.911914 7.2417181,-16.0864873 16.2370361,-16.0864873 z"
         style="fill:#010101;fill-opacity:1"
         id="rect1306-4" />
      <path
         d="m18 2h103c8.86 0 16 7.136 16 16v153c0 8.86-7.14 16-16 16h-103c-8.864 0-16-7.14-16-16v-153c0-8.864 7.136-16 16-16z"
         style="fill:#fdfeee"
         id="rect1306" />
    </g>
    <g
       transform="matrix(.59314 0 0 .23894 -103.05 9.256)"
       id="g1729">
      <path
         d="m260.18 149.6c-4.84 19.24-19.68 52-10.28 62.12 5.71 4.66 8.42-4.88 9.57-11.19h0.23l-3.79 31.84 8.78-0.1s-3.78-30.6-3.79-31.77h0.09c0.93 5.16 4.46 15.83 8.34 11.77 11.34-11.4-5.36-43.83-9.15-62.67z"
         style="stroke-linejoin:round;fill-rule:evenodd;stroke-width:.75890;fill:#000000"
         sodipodi:nodetypes="cccccccccc"
         id="path1731" />
    </g>
    <g
       transform="matrix(-.59314 0 0 -.23894 207.41 177.52)"
       id="g1753">
      <path
         d="m260.18 149.6c-4.84 19.24-19.68 52-10.28 62.12 5.71 4.66 8.42-4.88 9.57-11.19h0.23l-3.79 31.84 8.78-0.1s-3.78-30.6-3.79-31.77h0.09c0.93 5.16 4.46 15.83 8.34 11.77 11.34-11.4-5.36-43.83-9.15-62.67z"
         style="stroke-linejoin:round;fill-rule:evenodd;stroke-width:.75890;fill:#000000"
         sodipodi:nodetypes="cccccccccc"
         id="path1755" />
    </g>
    <g
       transform="matrix(.59314 0 0 .23894 -67.053 9.256)"
       id="g3456">
      <path
         d="m260.18 149.6c-4.84 19.24-19.68 52-10.28 62.12 5.71 4.66 8.42-4.88 9.57-11.19h0.23l-3.79 31.84 8.78-0.1s-3.78-30.6-3.79-31.77h0.09c0.93 5.16 4.46 15.83 8.34 11.77 11.34-11.4-5.36-43.83-9.15-62.67z"
         style="stroke-linejoin:round;fill-rule:evenodd;stroke-width:.75890;fill:#000000"
         sodipodi:nodetypes="cccccccccc"
         id="path3458" />
    </g>
    <g
       transform="matrix(-.59314 0 0 -.23894 242.41 177.52)"
       id="g3460">
      <path
         d="m260.18 149.6c-4.84 19.24-19.68 52-10.28 62.12 5.71 4.66 8.42-4.88 9.57-11.19h0.23l-3.79 31.84 8.78-0.1s-3.78-30.6-3.79-31.77h0.09c0.93 5.16 4.46 15.83 8.34 11.77 11.34-11.4-5.36-43.83-9.15-62.67z"
         style="stroke-linejoin:round;fill-rule:evenodd;stroke-width:.75890;fill:#000000"
         sodipodi:nodetypes="cccccccccc"
         id="path3462" />
    </g>
    <path
       d="m20.645 48.665c-4.925 7.825-20.035 21.149-10.463 25.263 5.811 1.894 8.576-1.983 9.747-4.549h0.235l-3.859 12.946 8.937-0.038s-3.85-12.445-3.859-12.921h0.094c0.946 2.097 4.536 6.439 8.484 4.785 11.546-4.635-5.455-17.824-9.316-25.486z"
       style="fill-rule:evenodd;fill:#000000"
       sodipodi:nodetypes="cccccccccc"
       id="path1561" />
    <path
       d="m11.275 11.998h18.69v4.36l-9.669 25.64h-6.23l9.154-24.313h-11.945v-5.687"
       style="fill:#000000"
       id="text2850" />
    <path
       d="m118.13 140c4.92-7.82 20.03-21.15 10.46-25.26-5.81-1.9-8.58 1.98-9.75 4.55h-0.23l3.86-12.95-8.94 0.04s3.85 12.44 3.86 12.92h-0.1c-0.94-2.1-4.53-6.44-8.48-4.79-11.547 4.64 5.45 17.83 9.32 25.49z"
       style="fill-rule:evenodd;fill:#000000"
       sodipodi:nodetypes="cccccccccc"
       id="path18705" />
    <path
       d="m127.5 177h-18.69v-4.36l9.66-25.64h6.23l-9.15 24.31h11.95v5.69"
       style="fill:#000000"
       id="text18707" />
    <g
       transform="matrix(.59314 0 0 .23894 -84.412 24.256)"
       id="g3957">
      <path
         d="m260.18 149.6c-4.84 19.24-19.68 52-10.28 62.12 5.71 4.66 8.42-4.88 9.57-11.19h0.23l-3.79 31.84 8.78-0.1s-3.78-30.6-3.79-31.77h0.09c0.93 5.16 4.46 15.83 8.34 11.77 11.34-11.4-5.36-43.83-9.15-62.67z"
         style="stroke-linejoin:round;fill-rule:evenodd;stroke-width:.75890;fill:#000000"
         sodipodi:nodetypes="cccccccccc"
         id="path3959" />
    </g>
    <g
       transform="matrix(-0.59314,0,0,0.23894,242.41,47.252088)"
       id="g4593">
      <path
         inkscape:connector-curvature="0"
         d="m 260.18,149.6 c -4.84,19.24 -19.68,52 -10.28,62.12 5.71,4.66 8.42,-4.88 9.57,-11.19 l 0.23,0 -3.79,31.84 8.78,-0.1 c 0,0 -3.78,-30.6 -3.79,-31.77 l 0.09,0 c 0.93,5.16 4.46,15.83 8.34,11.77 11.34,-11.4 -5.36,-43.83 -9.15,-62.67 z"
         style="fill:#000000;fill-rule:evenodd;stroke-width:0.75889999;stroke-linejoin:round"
         sodipodi:nodetypes="cccccccccc"
         id="path4595" />
    </g>
    <g
       transform="matrix(0.59314,0,0,0.23894,-104.053,47.256)"
       id="g4982">
      <path
         inkscape:connector-curvature="0"
         d="m 260.18,149.6 c -4.84,19.24 -19.68,52 -10.28,62.12 5.71,4.66 8.42,-4.88 9.57,-11.19 l 0.23,0 -3.79,31.84 8.78,-0.1 c 0,0 -3.78,-30.6 -3.79,-31.77 l 0.09,0 c 0.93,5.16 4.46,15.83 8.34,11.77 11.34,-11.4 -5.36,-43.83 -9.15,-62.67 z"
         style="fill:#000000;fill-rule:evenodd;stroke-width:0.75889999;stroke-linejoin:round"
         sodipodi:nodetypes="cccccccccc"
         id="path4984" />
    </g>
  </g>
  <metadata
     id="metadata4846">
    <rdf:RDF>
      <cc:Work>
        <dc:format>image/svg+xml</dc:format>
        <dc:type
           rdf:resource="http://purl.org/dc/dcmitype/StillImage" />
        <cc:license
           rdf:resource="http://creativecommons.org/licenses/publicdomain/" />
        <dc:publisher>
          <cc:Agent
             rdf:about="http://openclipart.org/">
            <dc:title>Openclipart</dc:title>
          </cc:Agent>
        </dc:publisher>
        <dc:title>White deck: 7 of spades</dc:title>
        <dc:date>2009-03-24T12:40:25</dc:date>
        <dc:description>playing card from the &quot;White&quot; set</dc:description>
        <dc:source>https://openclipart.org/detail/23209/white-deck:-7-of-spades-by-nicubunu</dc:source>
        <dc:creator>
          <cc:Agent>
            <dc:title>nicubunu</dc:title>
          </cc:Agent>
        </dc:creator>
        <dc:subject>
          <rdf:Bag>
            <rdf:li>card</rdf:li>
            <rdf:li>cards</rdf:li>
            <rdf:li>deck</rdf:li>
            <rdf:li>gambling</rdf:li>
            <rdf:li>game</rdf:li>
            <rdf:li>play</rdf:li>
            <rdf:li>playing cards</rdf:li>
            <rdf:li>white deck</rdf:li>
          </rdf:Bag>
        </dc:subject>
      </cc:Work>
      <cc:License
         rdf:about="http://creativecommons.org/licenses/publicdomain/">
        <cc:permits
           rdf:resource="http://creativecommons.org/ns#Reproduction" />
        <cc:permits
           rdf:resource="http://creativecommons.org/ns#Distribution" />
        <cc:permits
           rdf:resource="http://creativecommons.org/ns#DerivativeWorks" />
      </cc:License>
    </rdf:RDF>
  </metadata>
</svg>
