<?xml version="1.0" encoding="UTF-8" standalone="no"?>
<!-- Created with Inkscape (http://www.inkscape.org/) -->

<svg
   xmlns:dc="http://purl.org/dc/elements/1.1/"
   xmlns:cc="http://creativecommons.org/ns#"
   xmlns:rdf="http://www.w3.org/1999/02/22-rdf-syntax-ns#"
   xmlns:svg="http://www.w3.org/2000/svg"
   xmlns="http://www.w3.org/2000/svg"
   xmlns:sodipodi="http://sodipodi.sourceforge.net/DTD/sodipodi-0.dtd"
   xmlns:inkscape="http://www.inkscape.org/namespaces/inkscape"
   id="svg2"
   viewBox="0 0 140 190"
   sodipodi:version="0.32"
   version="1.0"
   inkscape:version="0.91 r13725"
   y="0"
   x="0"
   sodipodi:docname="heart7.svg">
  <defs
     id="defs7003" />
  <sodipodi:namedview
     id="base"
     bordercolor="#666666"
     inkscape:window-x="306"
     inkscape:window-y="80"
     pagecolor="#ffffff"
     inkscape:zoom="3.8210526"
     inkscape:pageshadow="2"
     borderopacity="1.0"
     inkscape:current-layer="svg2"
     inkscape:cx="70.9208"
     inkscape:cy="70.363938"
     inkscape:window-height="791"
     inkscape:pageopacity="0.0"
     inkscape:window-width="1152"
     showgrid="true"
     inkscape:window-maximized="0">
    <inkscape:grid
       type="xygrid"
       id="grid7005" />
  </sodipodi:namedview>
  <g
     id="layer1"
     inkscape:label="Layer 1"
     inkscape:groupmode="layer" />
  <g
     id="g4803">
    <g
       id="g2569">
      <g
         id="g3424">
        <g
           id="g4557"
           transform="translate(325.5 242.5)" />
      </g>
    </g>
  </g>
  <g
     id="g7354">
    <path
       id="rect1306-4"
       style="fill:#010101;fill-opacity:1"
       d="m 17.398194,1.5936607 104.525926,0 c 8.99126,0 16.23704,7.1745733 16.23704,16.0864873 l 0,153.827022 c 0,8.9079 -7.24578,16.08649 -16.23704,16.08649 l -104.525926,0 c -8.995318,0 -16.2370361,-7.17859 -16.2370361,-16.08649 l 0,-153.827022 c 0,-8.911914 7.2417181,-16.0864873 16.2370361,-16.0864873 z"
       inkscape:connector-curvature="0" />
    <path
       id="rect1306"
       style="fill:#fdfeee"
       d="m 18,2 103,0 c 8.86,0 16,7.136 16,16 l 0,153 c 0,8.86 -7.14,16 -16,16 L 18,187 C 9.136,187 2,179.86 2,171 L 2,18 C 2,9.136 9.136,2 18,2 Z"
       inkscape:connector-curvature="0" />
    <path
       d="m 11.275,11.998 18.689,0 0,4.36 -9.668,25.64 -6.23,0 9.153,-24.313 -11.944,0 0,-5.687"
       style="fill:#fd0000"
       id="text1386"
       inkscape:connector-curvature="0" />
    <g
       transform="matrix(0.28639,0,0,0.38877,-29.608,-9.4724)"
       style="fill:#fd0000"
       id="g1390">
      <path
         transform="matrix(1.1054,0,0,1.0796,-12.014,-18.867)"
         d="m 147.21,156.42 c -2.54,0.01 -5.33,0.48 -8.41,1.53 -33.62,19.53 11.7,51.04 30.84,78.09 l 0.56,0.14 c 21.03,-29.57 61.07,-62.11 30.47,-78.23 -24.23,-8.25 -30.71,19.2 -30.93,20.19 -0.2,-0.87 -5.15,-21.81 -22.53,-21.72 z"
         style="fill-rule:evenodd"
         id="path1392"
         inkscape:connector-curvature="0" />
    </g>
    <path
       d="m 127.59,177 -18.69,0 0,-4.36 9.67,-25.64 6.23,0 -9.15,24.32 11.94,0 0,5.68"
       style="fill:#fd0000"
       id="text14684"
       inkscape:connector-curvature="0" />
    <g
       transform="matrix(-0.28643,0,0,-0.38877,168.48,198.31)"
       style="fill:#fd0000"
       id="g14688">
      <path
         transform="matrix(1.1054,0,0,1.0796,-12.014,-18.867)"
         d="m 147.21,156.42 c -2.54,0.01 -5.33,0.48 -8.41,1.53 -33.62,19.53 11.7,51.04 30.84,78.09 l 0.56,0.14 c 21.03,-29.57 61.07,-62.11 30.47,-78.23 -24.23,-8.25 -30.71,19.2 -30.93,20.19 -0.2,-0.87 -5.15,-21.81 -22.53,-21.72 z"
         style="fill-rule:evenodd"
         id="path14690"
         inkscape:connector-curvature="0" />
    </g>
    <g
       transform="matrix(0.16636,0,0,0.22966,22.054,10.772)"
       style="fill:#fd0000"
       id="g1861">
      <path
         transform="matrix(1.1054,0,0,1.0796,-12.014,-18.867)"
         d="m 147.21,156.42 c -2.54,0.01 -5.33,0.48 -8.41,1.53 -33.62,19.53 11.7,51.04 30.84,78.09 l 0.56,0.14 c 21.03,-29.57 61.07,-62.11 30.47,-78.23 -24.23,-8.25 -30.71,19.2 -30.93,20.19 -0.2,-0.87 -5.15,-21.81 -22.53,-21.72 z"
         style="fill-rule:evenodd"
         id="path1863"
         inkscape:connector-curvature="0" />
    </g>
    <g
       transform="matrix(0.16636,0,0,0.22966,58.054,10.772)"
       style="fill:#fd0000"
       id="g4856">
      <path
         transform="matrix(1.1054,0,0,1.0796,-12.014,-18.867)"
         d="m 147.21,156.42 c -2.54,0.01 -5.33,0.48 -8.41,1.53 -33.62,19.53 11.7,51.04 30.84,78.09 l 0.56,0.14 c 21.03,-29.57 61.07,-62.11 30.47,-78.23 -24.23,-8.25 -30.71,19.2 -30.93,20.19 -0.2,-0.87 -5.15,-21.81 -22.53,-21.72 z"
         style="fill-rule:evenodd"
         id="path4858"
         inkscape:connector-curvature="0" />
    </g>
    <g
       transform="matrix(0.16636,0,0,0.22966,40.694,25.552)"
       style="fill:#fd0000"
       id="g4860">
      <path
         transform="matrix(1.1054,0,0,1.0796,-12.014,-18.867)"
         d="m 147.21,156.42 c -2.54,0.01 -5.33,0.48 -8.41,1.53 -33.62,19.53 11.7,51.04 30.84,78.09 l 0.56,0.14 c 21.03,-29.57 61.07,-62.11 30.47,-78.23 -24.23,-8.25 -30.71,19.2 -30.93,20.19 -0.2,-0.87 -5.15,-21.81 -22.53,-21.72 z"
         style="fill-rule:evenodd"
         id="path4862"
         inkscape:connector-curvature="0" />
    </g>
    <g
       transform="matrix(0.16636,0,0,0.22966,22.694,48.772)"
       style="fill:#fd0000"
       id="g4864">
      <path
         inkscape:connector-curvature="0"
         transform="matrix(1.1054,0,0,1.0796,-12.014,-18.867)"
         d="m 147.21,156.42 c -2.54,0.01 -5.33,0.48 -8.41,1.53 -33.62,19.53 11.7,51.04 30.84,78.09 l 0.56,0.14 c 21.03,-29.57 61.07,-62.11 30.47,-78.23 -24.23,-8.25 -30.71,19.2 -30.93,20.19 -0.2,-0.87 -5.15,-21.81 -22.53,-21.72 z"
         style="fill-rule:evenodd"
         id="path4866" />
    </g>
    <g
       transform="matrix(-0.16636,0,0,-0.22966,117.31,176.23)"
       style="fill:#fd0000"
       id="g4868">
      <path
         transform="matrix(1.1054,0,0,1.0796,-12.014,-18.867)"
         d="m 147.21,156.42 c -2.54,0.01 -5.33,0.48 -8.41,1.53 -33.62,19.53 11.7,51.04 30.84,78.09 l 0.56,0.14 c 21.03,-29.57 61.07,-62.11 30.47,-78.23 -24.23,-8.25 -30.71,19.2 -30.93,20.19 -0.2,-0.87 -5.15,-21.81 -22.53,-21.72 z"
         style="fill-rule:evenodd"
         id="path4870"
         inkscape:connector-curvature="0" />
    </g>
    <g
       transform="matrix(-0.16636,0,0,0.22966,117.306,48.777871)"
       style="fill:#fd0000"
       id="g4872">
      <path
         inkscape:connector-curvature="0"
         transform="matrix(1.1054,0,0,1.0796,-12.014,-18.867)"
         d="m 147.21,156.42 c -2.54,0.01 -5.33,0.48 -8.41,1.53 -33.62,19.53 11.7,51.04 30.84,78.09 l 0.56,0.14 c 21.03,-29.57 61.07,-62.11 30.47,-78.23 -24.23,-8.25 -30.71,19.2 -30.93,20.19 -0.2,-0.87 -5.15,-21.81 -22.53,-21.72 z"
         style="fill-rule:evenodd"
         id="path4874" />
    </g>
    <g
       transform="matrix(-0.16636,0,0,-0.22966,82.306,176.23)"
       style="fill:#fd0000"
       id="g4876">
      <path
         transform="matrix(1.1054,0,0,1.0796,-12.014,-18.867)"
         d="m 147.21,156.42 c -2.54,0.01 -5.33,0.48 -8.41,1.53 -33.62,19.53 11.7,51.04 30.84,78.09 l 0.56,0.14 c 21.03,-29.57 61.07,-62.11 30.47,-78.23 -24.23,-8.25 -30.71,19.2 -30.93,20.19 -0.2,-0.87 -5.15,-21.81 -22.53,-21.72 z"
         style="fill-rule:evenodd"
         id="path4878"
         inkscape:connector-curvature="0" />
    </g>
  </g>
  <metadata
     id="metadata7001">
    <rdf:RDF>
      <cc:Work>
        <dc:format>image/svg+xml</dc:format>
        <dc:type
           rdf:resource="http://purl.org/dc/dcmitype/StillImage" />
        <cc:license
           rdf:resource="http://creativecommons.org/licenses/publicdomain/" />
        <dc:publisher>
          <cc:Agent
             rdf:about="http://openclipart.org/">
            <dc:title>Openclipart</dc:title>
          </cc:Agent>
        </dc:publisher>
        <dc:title>White deck: 7 of hearts</dc:title>
        <dc:date>2009-03-24T12:21:54</dc:date>
        <dc:description>playing card from the &quot;White&quot; set</dc:description>
        <dc:source>https://openclipart.org/detail/23183/white-deck:-7-of-hearts-by-nicubunu</dc:source>
        <dc:creator>
          <cc:Agent>
            <dc:title>nicubunu</dc:title>
          </cc:Agent>
        </dc:creator>
        <dc:subject>
          <rdf:Bag>
            <rdf:li>card</rdf:li>
            <rdf:li>cards</rdf:li>
            <rdf:li>deck</rdf:li>
            <rdf:li>gambling</rdf:li>
            <rdf:li>game</rdf:li>
            <rdf:li>play</rdf:li>
            <rdf:li>playing cards</rdf:li>
            <rdf:li>white deck</rdf:li>
          </rdf:Bag>
        </dc:subject>
      </cc:Work>
      <cc:License
         rdf:about="http://creativecommons.org/licenses/publicdomain/">
        <cc:permits
           rdf:resource="http://creativecommons.org/ns#Reproduction" />
        <cc:permits
           rdf:resource="http://creativecommons.org/ns#Distribution" />
        <cc:permits
           rdf:resource="http://creativecommons.org/ns#DerivativeWorks" />
      </cc:License>
    </rdf:RDF>
  </metadata>
</svg>
