<?xml version="1.0" encoding="UTF-8" standalone="no"?>
<!-- Created with Inkscape (http://www.inkscape.org/) -->

<svg
   xmlns:dc="http://purl.org/dc/elements/1.1/"
   xmlns:cc="http://creativecommons.org/ns#"
   xmlns:rdf="http://www.w3.org/1999/02/22-rdf-syntax-ns#"
   xmlns:svg="http://www.w3.org/2000/svg"
   xmlns="http://www.w3.org/2000/svg"
   xmlns:sodipodi="http://sodipodi.sourceforge.net/DTD/sodipodi-0.dtd"
   xmlns:inkscape="http://www.inkscape.org/namespaces/inkscape"
   width="210mm"
   height="297mm"
   viewBox="0 0 744.09448819 1052.3622047"
   id="svg2"
   version="1.1"
   inkscape:version="0.91 r13725"
   sodipodi:docname="club7.svg">
  <defs
     id="defs4" />
  <sodipodi:namedview
     id="base"
     pagecolor="#ffffff"
     bordercolor="#666666"
     borderopacity="1.0"
     inkscape:pageopacity="0.0"
     inkscape:pageshadow="2"
     inkscape:zoom="2.6804259"
     inkscape:cx="321.53267"
     inkscape:cy="581.373"
     inkscape:document-units="px"
     inkscape:current-layer="layer1"
     showgrid="false"
     inkscape:window-width="1920"
     inkscape:window-height="1031"
     inkscape:window-x="145"
     inkscape:window-y="18"
     inkscape:window-maximized="0">
    <inkscape:grid
       type="xygrid"
       id="grid4166" />
  </sodipodi:namedview>
  <metadata
     id="metadata7">
    <rdf:RDF>
      <cc:Work
         rdf:about="">
        <dc:format>image/svg+xml</dc:format>
        <dc:type
           rdf:resource="http://purl.org/dc/dcmitype/StillImage" />
        <dc:title />
      </cc:Work>
    </rdf:RDF>
  </metadata>
  <g
     inkscape:label="Layer 1"
     inkscape:groupmode="layer"
     id="layer1">
    <rect
       style="fill:none;fill-rule:evenodd;stroke:#fdfeee;stroke-width:1px;stroke-linecap:butt;stroke-linejoin:miter;stroke-opacity:1"
       id="rect4142"
       width="323.97739"
       height="396.70703"
       x="230.99919"
       y="366.38965"
       rx="18.3153"
       ry="17.8148" />
    <rect
       style="opacity:1;fill:#fff6d5;fill-opacity:1;stroke:#f00000;stroke-width:1;stroke-linecap:butt;stroke-linejoin:round;stroke-miterlimit:4;stroke-dasharray:none;stroke-opacity:0"
       id="rect4152"
       width="4.1323647"
       height="0.82647294"
       x="423.15414"
       y="362.25729"
       rx="18.3153"
       ry="0.82647294" />
    <rect
       style="fill:#fdfeee;fill-opacity:1;fill-rule:evenodd;stroke:#000000;stroke-width:0.99481821px;stroke-linecap:butt;stroke-linejoin:miter;stroke-opacity:1"
       id="rect4164"
       width="207.00519"
       height="302.00519"
       x="163.49823"
       y="316.23788"
       rx="24.88043"
       ry="24.860483" />
    <rect
       style="fill:#fdfeee;fill-opacity:0;fill-rule:evenodd;stroke:#000000;stroke-width:1px;stroke-linecap:butt;stroke-linejoin:miter;stroke-opacity:1"
       id="rect4236"
       width="100"
       height="179.99998"
       x="216.77567"
       y="377.03522" />
    <path
       style="fill:#000000"
       inkscape:connector-curvature="0"
       d="m 247.37047,394.84315 c 0,0 4.4608,-3.57366 4.4608,-8.52788 0,-2.90031 -2.57129,-7.71534 -8.51589,-7.71534 -5.9446,0 -8.5159,4.81691 -8.5159,7.71534 0,4.95422 4.4608,8.52788 4.4608,8.52788 -4.95477,-3.86519 -13.78809,-1.22633 -13.78809,6.49842 0,3.86708 3.15543,8.12162 8.1102,8.12162 5.94459,0 8.51589,-6.49843 8.51589,-6.49843 0,0 0.75505,7.40689 -3.6494,11.37177 l 9.73299,0 c -4.40445,-3.963 -3.6494,-11.37177 -3.6494,-11.37177 0,0 2.5713,6.49843 8.51589,6.49843 4.95665,0 8.1102,-4.25642 8.1102,-8.12162 0,-7.72475 -8.83332,-10.36361 -13.78809,-6.49842 z"
       id="cl-9-8" />
    <path
       style="fill:#000000"
       inkscape:connector-curvature="0"
       d="m 295.20129,394.7131 c 0,0 4.4608,-3.57366 4.4608,-8.52788 0,-2.90031 -2.57129,-7.71534 -8.5159,-7.71534 -5.9446,0 -8.51589,4.81691 -8.51589,7.71534 0,4.95422 4.4608,8.52788 4.4608,8.52788 -4.95478,-3.86519 -13.78809,-1.22633 -13.78809,6.49842 0,3.86708 3.15542,8.12162 8.11019,8.12162 5.9446,0 8.5159,-6.49843 8.5159,-6.49843 0,0 0.75505,7.40689 -3.6494,11.37177 l 9.73298,0 c -4.40444,-3.963 -3.64939,-11.37177 -3.64939,-11.37177 0,0 2.57129,6.49843 8.51589,6.49843 4.95664,0 8.11019,-4.25642 8.11019,-8.12162 0,-7.72475 -8.83331,-10.36361 -13.78808,-6.49842 z"
       id="cl-9-8-9" />
    <path
       style="fill:#000000"
       inkscape:connector-curvature="0"
       d="m 286.60819,539.09683 c 0,0 -4.4608,3.57368 -4.4608,8.52789 0,2.90031 2.57129,7.71535 8.51589,7.71535 5.94461,0 8.5159,-4.81692 8.5159,-7.71535 0,-4.95421 -4.4608,-8.52789 -4.4608,-8.52789 4.95478,3.8652 13.78809,1.22633 13.78809,-6.49841 0,-3.86708 -3.15542,-8.12161 -8.1102,-8.12161 -5.9446,0 -8.51589,6.49842 -8.51589,6.49842 0,0 -0.75505,-7.40689 3.6494,-11.37177 l -9.73298,0 c 4.40444,3.96301 3.64939,11.37177 3.64939,11.37177 0,0 -2.5713,-6.49842 -8.5159,-6.49842 -4.95664,0 -8.11019,4.25641 -8.11019,8.12161 0,7.72474 8.83332,10.36361 13.78809,6.49841 z"
       id="cl-9-8-4" />
    <path
       style="fill:#000000"
       inkscape:connector-curvature="0"
       d="m 238.77746,539.22664 c 0,0 -4.4608,3.57367 -4.4608,8.52789 0,2.90031 2.57129,7.71535 8.51589,7.71535 5.9446,0 8.5159,-4.81692 8.5159,-7.71535 0,-4.95422 -4.4608,-8.52789 -4.4608,-8.52789 4.95477,3.8652 13.78809,1.22633 13.78809,-6.49841 0,-3.86708 -3.15543,-8.12162 -8.1102,-8.12162 -5.94459,0 -8.51589,6.49842 -8.51589,6.49842 0,0 -0.75505,-7.40689 3.6494,-11.37176 l -9.73299,0 c 4.40445,3.963 3.6494,11.37176 3.6494,11.37176 0,0 -2.5713,-6.49842 -8.51589,-6.49842 -4.95665,0 -8.1102,4.25642 -8.1102,8.12162 0,7.72474 8.83332,10.36361 13.78809,6.49841 z"
       id="cl-9-8-9-6" />
    <path
       style="fill:#000000"
       inkscape:connector-curvature="0"
       d="m 247.02482,485.82229 c 0,0 4.46079,-3.57367 4.46079,-8.52789 0,-2.90031 -2.57129,-7.71534 -8.51589,-7.71534 -5.9446,0 -8.51589,4.81691 -8.51589,7.71534 0,4.95422 4.46079,8.52789 4.46079,8.52789 -4.95477,-3.8652 -13.78808,-1.22633 -13.78808,6.49841 0,3.86709 3.15542,8.12162 8.11019,8.12162 5.9446,0 8.51589,-6.49842 8.51589,-6.49842 0,0 0.75505,7.40688 -3.64939,11.37176 l 9.73298,0 c -4.40445,-3.963 -3.6494,-11.37176 -3.6494,-11.37176 0,0 2.5713,6.49842 8.51589,6.49842 4.95665,0 8.1102,-4.25642 8.1102,-8.12162 0,-7.72474 -8.83332,-10.36361 -13.78808,-6.49841 z"
       id="cl-9-8-0" />
    <path
       style="fill:#000000"
       inkscape:connector-curvature="0"
       d="m 295.20129,485.69224 c 0,0 4.4608,-3.57367 4.4608,-8.52789 0,-2.90031 -2.57129,-7.71534 -8.5159,-7.71534 -5.9446,0 -8.51589,4.81691 -8.51589,7.71534 0,4.95422 4.4608,8.52789 4.4608,8.52789 -4.95478,-3.8652 -13.78809,-1.22633 -13.78809,6.49841 0,3.86708 3.15542,8.12162 8.11019,8.12162 5.9446,0 8.5159,-6.49842 8.5159,-6.49842 0,0 0.75505,7.40688 -3.6494,11.37176 l 9.73298,0 c -4.40444,-3.963 -3.64939,-11.37176 -3.64939,-11.37176 0,0 2.57129,6.49842 8.51589,6.49842 4.95664,0 8.11019,-4.25642 8.11019,-8.12162 0,-7.72474 -8.83331,-10.36361 -13.78808,-6.49841 z"
       id="cl-9-8-0-4" />
    <path
       style="fill:#000000"
       inkscape:connector-curvature="0"
       d="m 264.38683,442.12317 c 0,0 -4.4608,-3.57367 -4.4608,-8.52788 0,-2.90031 2.5713,-7.71535 8.5159,-7.71535 5.94459,0 8.51589,4.81691 8.51589,7.71535 0,4.95421 -4.4608,8.52788 -4.4608,8.52788 4.95477,-3.86519 13.78809,-1.22633 13.78809,6.49842 0,3.86708 -3.15543,8.12161 -8.1102,8.12161 -5.9446,0 -8.51589,-6.49842 -8.51589,-6.49842 0,0 -0.75505,7.40688 3.6494,11.37177 l -9.73299,0 c 4.40445,-3.96301 3.6494,-11.37177 3.6494,-11.37177 0,0 -2.57129,6.49842 -8.51589,6.49842 -4.95665,0 -8.1102,-4.25641 -8.1102,-8.12161 0,-7.72475 8.83332,-10.36361 13.78809,-6.49842 z"
       id="cl-9-8-0-4-9"
       inkscape:transform-center-x="5.8037944"
       inkscape:transform-center-y="3.8691963" />
    <g
       id="g6482"
       transform="translate(-254.00888,62.593299)">
      <text
         sodipodi:linespacing="125%"
         id="text3788"
         y="298.46396"
         x="435.38818"
         style="font-style:normal;font-weight:normal;font-size:40px;line-height:125%;font-family:'Bitstream Vera Sans';letter-spacing:0px;word-spacing:0px;fill:#000000;fill-opacity:1;stroke:none"
         xml:space="preserve"><tspan
           style="font-style:normal;font-variant:normal;font-weight:normal;font-stretch:normal;font-family:Arial;-inkscape-font-specification:Arial"
           y="298.46396"
           x="435.38818"
           id="tspan3790"
           sodipodi:role="line">7</tspan></text>
      <g
         id="layer1-1-4-8"
         transform="matrix(1.8570632,0,0,1.8570632,357.46918,276.55105)">
        <path
           style="fill:#000000"
           inkscape:connector-curvature="0"
           d="m 50.291466,22.698228 c 0,0 2.375,-1.9 2.375,-4.534 0,-1.542 -1.369,-4.102 -4.534,-4.102 -3.165,0 -4.534,2.561 -4.534,4.102 0,2.634 2.375,4.534 2.375,4.534 -2.638,-2.055 -7.341,-0.652 -7.341,3.455 0,2.056 1.68,4.318 4.318,4.318 3.165,0 4.534,-3.455 4.534,-3.455 0,0 0.402,3.938 -1.943,6.046 l 5.182,0 c -2.345,-2.107 -1.943,-6.046 -1.943,-6.046 0,0 1.369,3.455 4.534,3.455 2.639,0 4.318,-2.263 4.318,-4.318 0,-4.107 -4.703,-5.51 -7.341,-3.455 z"
           id="cl-9-5" />
      </g>
    </g>
    <g
       id="g6500"
       transform="translate(-4.8499756,24.622953)">
      <text
         transform="scale(-1,-1)"
         sodipodi:linespacing="125%"
         id="text3788-6"
         y="-510.20227"
         x="-357.7124"
         style="font-style:normal;font-weight:normal;font-size:40px;line-height:125%;font-family:'Bitstream Vera Sans';letter-spacing:0px;word-spacing:0px;fill:#000000;fill-opacity:1;stroke:none"
         xml:space="preserve"><tspan
           style="font-style:normal;font-variant:normal;font-weight:normal;font-stretch:normal;font-family:Arial;-inkscape-font-specification:Arial"
           y="-510.20227"
           x="-357.7124"
           id="tspan3790-9"
           sodipodi:role="line">7</tspan></text>
      <g
         id="layer1-1-4"
         transform="matrix(-1.8570632,0,0,-1.8570632,436.23924,604.06415)">
        <path
           style="fill:#000000"
           inkscape:connector-curvature="0"
           d="m 50.291466,22.698228 c 0,0 2.375,-1.9 2.375,-4.534 0,-1.542 -1.369,-4.102 -4.534,-4.102 -3.165,0 -4.534,2.561 -4.534,4.102 0,2.634 2.375,4.534 2.375,4.534 -2.638,-2.055 -7.341,-0.652 -7.341,3.455 0,2.056 1.68,4.318 4.318,4.318 3.165,0 4.534,-3.455 4.534,-3.455 0,0 0.402,3.938 -1.943,6.046 l 5.182,0 c -2.345,-2.107 -1.943,-6.046 -1.943,-6.046 0,0 1.369,3.455 4.534,3.455 2.639,0 4.318,-2.263 4.318,-4.318 0,-4.107 -4.703,-5.51 -7.341,-3.455 z"
           id="cl-9" />
      </g>
    </g>
  </g>
</svg>
